<?xml version="1.0" encoding="utf-8"?>
<!-- Generator: Adobe Illustrator 17.1.0, SVG Export Plug-In . SVG Version: 6.00 Build 0)  -->
<!DOCTYPE svg PUBLIC "-//W3C//DTD SVG 1.1//EN" "http://www.w3.org/Graphics/SVG/1.1/DTD/svg11.dtd">
<svg version="1.1" id="Layer_1" xmlns="http://www.w3.org/2000/svg" xmlns:xlink="http://www.w3.org/1999/xlink" x="0px" y="0px"
	 viewBox="0 0 100 100" enable-background="new 0 0 100 100" xml:space="preserve">
<g>
	<g>
		<path fill="#231F20" d="M88,88H12C6.4,88,2,83.6,2,78V22c0-5.6,4.4-10,10-10h76c5.6,0,10,4.4,10,10v56C98,83.6,93.6,88,88,88z
			 M12,16c-3.4,0-6,2.6-6,6v56c0,3.4,2.6,6,6,6h76c3.4,0,6-2.6,6-6V22c0-3.4-2.6-6-6-6H12z"/>
	</g>
	<g>
		<path fill="#231F20" d="M96,36H4c-1.2,0-2-0.8-2-2s0.8-2,2-2h92c1.2,0,2,0.8,2,2S97.2,36,96,36z"/>
	</g>
	<g>
		<circle fill="#231F20" cx="18" cy="24" r="4"/>
	</g>
	<g>
		<circle fill="#231F20" cx="30" cy="24" r="4"/>
	</g>
	<g>
		<circle fill="#231F20" cx="42" cy="24" r="4"/>
	</g>
</g>
</svg>
