<?xml version="1.0" encoding="utf-8"?>
<!-- Generator: Adobe Illustrator 17.1.0, SVG Export Plug-In . SVG Version: 6.00 Build 0)  -->
<!DOCTYPE svg PUBLIC "-//W3C//DTD SVG 1.1//EN" "http://www.w3.org/Graphics/SVG/1.1/DTD/svg11.dtd">
<svg version="1.1" id="Layer_1" xmlns="http://www.w3.org/2000/svg" xmlns:xlink="http://www.w3.org/1999/xlink" x="0px" y="0px"
	 viewBox="0 0 100 100" enable-background="new 0 0 100 100" xml:space="preserve">
<g>
	<g>
		<path fill="#231F20" d="M90,82H10c-4.4,0-8-3.6-8-8V26c0-4.4,3.6-8,8-8h80c4.4,0,8,3.6,8,8v48C98,78.4,94.4,82,90,82z M10,22
			c-2.2,0-4,1.8-4,4v48c0,2.2,1.8,4,4,4h80c2.2,0,4-1.8,4-4V26c0-2.2-1.8-4-4-4H10z"/>
	</g>
	<g>
		<path fill="#231F20" d="M50,60c-0.4,0-0.8-0.2-1-0.4l-34-22c-1-0.6-1.2-1.8-0.6-2.8s1.8-1.2,2.8-0.6l33,21.2l33-21.2
			c1-0.6,2.2-0.4,2.8,0.6s0.4,2.2-0.6,2.8l-34,22C50.8,59.8,50.4,60,50,60z"/>
	</g>
	<g>
		<path fill="#231F20" d="M16,68c-0.6,0-1.4-0.4-1.8-1c-0.6-1-0.2-2.2,0.8-2.8l14-8c1-0.6,2.2-0.2,2.8,0.8s0.2,2.2-0.8,2.8l-14,8
			C16.6,68,16.4,68,16,68z"/>
	</g>
	<g>
		<path fill="#231F20" d="M84,68c-0.4,0-0.6,0-1-0.2l-14-8c-1-0.6-1.2-1.8-0.8-2.8c0.6-1,1.8-1.2,2.8-0.8l14,8
			c1,0.6,1.2,1.8,0.8,2.8C85.4,67.6,84.6,68,84,68z"/>
	</g>
</g>
</svg>
