<?xml version="1.0" encoding="utf-8"?>
<!-- Generator: Adobe Illustrator 17.1.0, SVG Export Plug-In . SVG Version: 6.00 Build 0)  -->
<!DOCTYPE svg PUBLIC "-//W3C//DTD SVG 1.1//EN" "http://www.w3.org/Graphics/SVG/1.1/DTD/svg11.dtd">
<svg version="1.1" id="Layer_1" xmlns="http://www.w3.org/2000/svg" xmlns:xlink="http://www.w3.org/1999/xlink" x="0px" y="0px"
	 viewBox="0 0 100 100" enable-background="new 0 0 100 100" xml:space="preserve">
<g>
	<g>
		<path fill="#231F20" d="M50,98c-0.6,0-1.2-0.4-1.6-0.8C47.2,95.4,18,51,18,34C18,16.4,32.4,2,50,2s32,14.4,32,32
			c0,17-29,61.2-30.4,63.2C51.2,97.6,50.6,98,50,98z M50,6C34.6,6,22,18.6,22,34c0,13.6,21.8,48.6,28,58.4c6.2-9.8,28-44.8,28-58.4
			C78,18.6,65.4,6,50,6z"/>
	</g>
	<g>
		<path fill="#231F20" d="M50,48c-7.8,0-14-6.2-14-14s6.2-14,14-14s14,6.2,14,14S57.8,48,50,48z M50,24c-5.6,0-10,4.4-10,10
			s4.4,10,10,10s10-4.4,10-10S55.6,24,50,24z"/>
	</g>
</g>
</svg>
