<?xml version="1.0" encoding="utf-8"?>
<!-- Generator: Adobe Illustrator 17.1.0, SVG Export Plug-In . SVG Version: 6.00 Build 0)  -->
<!DOCTYPE svg PUBLIC "-//W3C//DTD SVG 1.1//EN" "http://www.w3.org/Graphics/SVG/1.1/DTD/svg11.dtd">
<svg version="1.1" id="Layer_1" xmlns="http://www.w3.org/2000/svg" xmlns:xlink="http://www.w3.org/1999/xlink" x="0px" y="0px"
	 viewBox="270.4 280 119.8 200" enable-background="new 270.4 280 119.8 200" xml:space="preserve">
<g>
	<path fill="#FFFFFF" d="M330.3,280c-33,0-59.9,26.2-59.9,59.2c0,7.3,1.6,15.3,4.4,22.5h0l0.3,0.5c0.2,0.5,0.4,1,0.7,1.5L330.3,480
		l54.4-115.7l0.3-0.5c0.2-0.5,0.5-1,0.7-1.5l0.2-0.5c2.9-7.2,4.4-14.8,4.4-22.5C390.2,306.2,363.3,280,330.3,280z M330.3,358.1
		c-11.6,0-20.9-9.4-20.9-20.9s9.4-20.9,20.9-20.9s20.9,9.4,20.9,20.9S341.9,358.1,330.3,358.1z"/>
</g>
</svg>
