<?xml version="1.0" encoding="utf-8"?>
<!-- Generator: Adobe Illustrator 17.1.0, SVG Export Plug-In . SVG Version: 6.00 Build 0)  -->
<!DOCTYPE svg PUBLIC "-//W3C//DTD SVG 1.1//EN" "http://www.w3.org/Graphics/SVG/1.1/DTD/svg11.dtd">
<svg version="1.1"
	 id="svg2999" xmlns:inkscape="http://www.inkscape.org/namespaces/inkscape" xmlns:cc="http://creativecommons.org/ns#" xmlns:svg="http://www.w3.org/2000/svg" xmlns:rdf="http://www.w3.org/1999/02/22-rdf-syntax-ns#" xmlns:dc="http://purl.org/dc/elements/1.1/" xmlns:sodipodi="http://sodipodi.sourceforge.net/DTD/sodipodi-0.dtd" sodipodi:docname="Gender_symbols_side_by_side.svg" inkscape:version="0.48.2 r9819"
	 xmlns="http://www.w3.org/2000/svg" xmlns:xlink="http://www.w3.org/1999/xlink" x="0px" y="0px" viewBox="172.8 22 205.4 205.3"
	 enable-background="new 172.8 22 205.4 205.3" xml:space="preserve">
<sodipodi:namedview  inkscape:window-y="-4" inkscape:window-maximized="1" inkscape:current-layer="svg2999" inkscape:window-x="-4" id="namedview3009" objecttolerance="10" showgrid="false" guidetolerance="10" gridtolerance="10" inkscape:cy="102.5" inkscape:zoom="2.5707317" inkscape:cx="107.76091" bordercolor="#666666" borderopacity="1" pagecolor="#ffffff" inkscape:window-height="744" inkscape:pageshadow="2" inkscape:window-width="1280" inkscape:pageopacity="0">
	</sodipodi:namedview>
<path id="path3007" fill="#FFFFFF" stroke="#FFFFFF" stroke-width="3" stroke-linejoin="round" d="M375.7,81.4h-18.5V55.9
	l-33.9,33.8c12.1,15.2,18.2,32.6,18.2,52c0,22.9-8.1,42.4-24.4,58.7c-16.3,16.3-35.9,24.4-58.7,24.4s-42.4-8.1-58.7-24.4
	s-24.4-35.8-24.4-58.7c0-22.7,8.1-42.2,24.4-58.5c16.3-16.3,35.9-24.4,58.7-24.4c19.5,0,36.8,6,51.9,18l33.9-33.8h-25.6V24.5h57
	L375.7,81.4z M258.4,206.4c17.7,0,33-6.4,45.6-19c12.7-12.7,19.1-28,19.1-45.8s-6.4-33-19-45.6c-12.6-12.6-27.9-18.9-45.7-18.9
	c-17.7,0-33,6.3-45.6,19c-12.7,12.7-19,27.9-19,45.6c0,17.8,6.2,33.1,19,45.8C225.5,200.1,240.7,206.4,258.4,206.4z"/>
</svg>
