<?xml version="1.0" encoding="utf-8"?>
<!-- Generator: Adobe Illustrator 17.1.0, SVG Export Plug-In . SVG Version: 6.00 Build 0)  -->
<!DOCTYPE svg PUBLIC "-//W3C//DTD SVG 1.1//EN" "http://www.w3.org/Graphics/SVG/1.1/DTD/svg11.dtd">
<svg version="1.1"
	 id="svg2999" xmlns:inkscape="http://www.inkscape.org/namespaces/inkscape" xmlns:cc="http://creativecommons.org/ns#" xmlns:svg="http://www.w3.org/2000/svg" xmlns:rdf="http://www.w3.org/1999/02/22-rdf-syntax-ns#" xmlns:dc="http://purl.org/dc/elements/1.1/" xmlns:sodipodi="http://sodipodi.sourceforge.net/DTD/sodipodi-0.dtd" sodipodi:docname="Gender_symbols_side_by_side.svg" inkscape:version="0.48.2 r9819"
	 xmlns="http://www.w3.org/2000/svg" xmlns:xlink="http://www.w3.org/1999/xlink" x="0px" y="0px" viewBox="-0.1 -2.9 138.2 203.2"
	 enable-background="new -0.1 -2.9 138.2 203.2" xml:space="preserve">
<sodipodi:namedview  inkscape:window-y="-4" inkscape:window-maximized="1" inkscape:current-layer="svg2999" inkscape:window-x="-4" id="namedview3009" objecttolerance="10" showgrid="false" guidetolerance="10" gridtolerance="10" inkscape:cy="102.5" inkscape:zoom="2.5707317" inkscape:cx="107.76091" bordercolor="#666666" borderopacity="1" pagecolor="#ffffff" inkscape:window-height="744" inkscape:pageshadow="2" inkscape:window-width="1280" inkscape:pageopacity="0">
	</sodipodi:namedview>
<path id="path3005" fill="#FFFFFF" stroke="#FFFFFF" stroke-width="3" stroke-linejoin="round" d="M61.4,133.3
	c-17.8-2.2-32.2-9.7-43.4-22.6C6.9,97.8,1.4,82.9,1.4,66.2c0-18.6,6.6-34.5,19.8-47.8C34.4,5.2,50.3-1.4,69-1.4
	c18.5,0,34.4,6.6,47.7,19.9c13.3,13.3,19.9,29.2,19.9,47.7c0,16.7-5.6,31.6-16.7,44.5c-11.2,12.8-25.7,20.4-43.5,22.6v25.4h25.1v15
	H76.5v25.1h-15v-25.1H36.5v-15h24.9L61.4,133.3z M69,118.8c14.4,0,26.8-5.2,37.1-15.4c10.3-10.2,15.4-22.6,15.4-37.1
	c0-14.5-5.1-26.9-15.4-37.2C95.9,18.8,83.5,13.6,69,13.6c-14.5,0-26.9,5.2-37.2,15.5C21.5,39.4,16.4,51.8,16.4,66.2
	c0,14.5,5.1,26.9,15.4,37.1C42.1,113.6,54.5,118.8,69,118.8z"/>
</svg>
