<?xml version="1.0" encoding="utf-8"?>
<!-- Generator: Adobe Illustrator 17.1.0, SVG Export Plug-In . SVG Version: 6.00 Build 0)  -->
<!DOCTYPE svg PUBLIC "-//W3C//DTD SVG 1.1//EN" "http://www.w3.org/Graphics/SVG/1.1/DTD/svg11.dtd">
<svg version="1.1" id="Layer_1" xmlns="http://www.w3.org/2000/svg" xmlns:xlink="http://www.w3.org/1999/xlink" x="0px" y="0px"
	 viewBox="0 0 100 100" enable-background="new 0 0 100 100" xml:space="preserve">
<g>
	<g>
		<path fill="#231F20" d="M72,98H28c-5.6,0-10-4.4-10-10V12c0-5.6,4.4-10,10-10h44c5.6,0,10,4.4,10,10v76C82,93.6,77.6,98,72,98z
			 M28,6c-3.4,0-6,2.6-6,6v76c0,3.4,2.6,6,6,6h44c3.4,0,6-2.6,6-6V12c0-3.4-2.6-6-6-6H28z"/>
	</g>
	<g>
		<path fill="#231F20" d="M80,22H20c-1.2,0-2-0.8-2-2s0.8-2,2-2h60c1.2,0,2,0.8,2,2S81.2,22,80,22z"/>
	</g>
	<g>
		<path fill="#231F20" d="M80,82H20c-1.2,0-2-0.8-2-2s0.8-2,2-2h60c1.2,0,2,0.8,2,2S81.2,82,80,82z"/>
	</g>
	<g>
		<path fill="#231F20" d="M50,84c-2.2,0-4,1.8-4,4s1.8,4,4,4s4-1.8,4-4S52.2,84,50,84L50,84z"/>
	</g>
	<g>
		<path fill="#231F20" d="M60,14H40c-1.2,0-2-0.8-2-2s0.8-2,2-2h20c1.2,0,2,0.8,2,2S61.2,14,60,14z"/>
	</g>
</g>
</svg>
